<svg xmlns="http://www.w3.org/2000/svg" xmlns:xlink="http://www.w3.org/1999/xlink" width="50" height="49" viewBox="0 0 50 49">
    <defs>
        <path id="a" d="M.782.135h13.67v20.3H.783z"/>
        <path id="c" d="M1.117.135h13.677v20.3H1.117z"/>
    </defs>
    <g fill="none" fill-rule="evenodd">
        <path fill="#CECED0" d="M35.383 48.865c-.927 0-2.621-.433-4.022-.842a2.307 2.307 0 0 1-1.56-2.904l.154-.493 1.056-.536c2.844.97 4.605 1.553 5.667.696 2.391-1.94 2.652-3.046 2.652-6.566h1.273c1.342 0 2.422 1.145 2.303 2.481-.23 2.557-1.054 4.598-3.926 6.926-1.124.912-2.347 1.238-3.597 1.238"/>
        <path fill="#1B8734" d="M24.86 42.345c1.728 0 3.468.586 5.15 1.156 2.513.848 4.681 1.581 6.265.296 2.838-2.3 3.105-3.888 3.105-7.513 0-2.144-2.694-4.309-5.07-6.22-1.326-1.066-2.577-2.074-3.226-2.996l-.266-.38c-1.543-2.213-2.318-3.324-5.958-3.324s-4.414 1.111-5.958 3.322l-.267.382c-.647.922-1.9 1.93-3.227 2.997-2.375 1.91-5.068 4.075-5.068 6.219 0 3.626.267 5.214 3.105 7.513 1.583 1.285 3.754.552 6.263-.296 1.685-.57 3.425-1.156 5.152-1.156m-9.33 3.36c-1.02 0-1.987-.258-2.853-.96-3.22-2.611-3.556-4.583-3.556-8.461 0-2.727 2.934-5.088 5.523-7.17 1.257-1.011 2.445-1.966 2.994-2.748l.264-.378c1.556-2.231 2.682-3.843 6.958-3.843 4.278 0 5.402 1.613 6.958 3.846l.264.375c.548.782 1.736 1.737 2.993 2.747 2.59 2.083 5.525 4.444 5.525 7.17 0 3.879-.335 5.85-3.556 8.463-2.105 1.707-4.81.792-7.423-.09-1.59-.537-3.235-1.092-4.761-1.092-1.527 0-3.171.555-4.76 1.093-1.54.518-3.11 1.048-4.57 1.048"/>
        <g transform="translate(25.61 .084)">
            <mask id="b" fill="#fff">
                <use xlink:href="#a"/>
            </mask>
            <path fill="#3C3C45" d="M13.673 11.211h.012-.012zM8.465 1.355c-1.247 0-2.523.683-3.645 1.964-1.342 1.533-2.286 3.71-2.656 6.134-.748 4.904 1.089 9.267 4.095 9.727 3.007.462 6.063-3.156 6.812-8.06.747-4.905-1.09-9.267-4.095-9.727a3.42 3.42 0 0 0-.511-.038zm-1.71 19.08c-.226 0-.454-.015-.68-.05C2.405 19.824.11 14.838.96 9.269c.405-2.65 1.45-5.048 2.944-6.754C5.46.735 7.316-.09 9.16.188c3.67.561 5.965 5.548 5.115 11.115-.798 5.224-4.086 9.133-7.521 9.133z" mask="url(#b)"/>
        </g>
        <path fill="#3C3C45" d="M48.276 25.244h.012-.012zm-2.914-8.612c-.78 0-1.633.31-2.48.917-1.312.936-2.434 2.446-3.161 4.25-1.437 3.57-.822 7.323 1.341 8.195 1.021.411 2.256.152 3.487-.727 1.312-.938 2.434-2.446 3.16-4.251.728-1.804.964-3.67.668-5.254-.278-1.486-.99-2.529-2.009-2.939a2.67 2.67 0 0 0-1.006-.191zM42.07 31.406c-.506 0-.997-.092-1.463-.281-2.874-1.159-3.76-5.454-2.017-9.781.813-2.017 2.085-3.717 3.582-4.788 1.58-1.127 3.233-1.438 4.651-.864 1.419.57 2.395 1.936 2.753 3.846.339 1.81.078 3.917-.734 5.934-.813 2.017-2.086 3.717-3.585 4.787-1.06.758-2.153 1.147-3.187 1.147zM4.358 16.632c-.351 0-.688.064-1.005.19-1.018.41-1.732 1.454-2.01 2.94-.296 1.584-.06 3.45.667 5.254.727 1.804 1.849 3.314 3.161 4.25 1.23.88 2.465 1.14 3.486.727 2.202-.886 2.803-4.562 1.342-8.195-.727-1.802-1.85-3.312-3.16-4.249-.848-.606-1.7-.917-2.481-.917m3.291 14.773c-1.033 0-2.127-.387-3.188-1.146-1.498-1.07-2.77-2.77-3.582-4.788-.813-2.016-1.072-4.123-.735-5.933.358-1.91 1.336-3.276 2.754-3.846 1.415-.572 3.067-.265 4.649.865 1.499 1.07 2.772 2.77 3.584 4.786 1.74 4.327.855 8.625-2.02 9.782-.464.188-.957.28-1.462.28"/>
        <g transform="translate(8.537 .084)">
            <mask id="d" fill="#fff">
                <use xlink:href="#c"/>
            </mask>
            <path fill="#3C3C45" d="M7.108 1.355c-.171 0-.34.012-.511.038-1.404.215-2.609 1.309-3.39 3.08-.824 1.863-1.074 4.224-.703 6.647.749 4.902 3.811 8.518 6.812 8.06 1.404-.215 2.608-1.309 3.39-3.08.824-1.863 1.074-4.224.703-6.647-.37-2.423-1.314-4.601-2.656-6.134-1.122-1.28-2.399-1.964-3.645-1.964m1.71 19.08c-3.433 0-6.721-3.908-7.52-9.132-.405-2.65-.123-5.25.793-7.325.957-2.164 2.492-3.51 4.323-3.79 1.835-.28 3.699.548 5.256 2.327 1.494 1.706 2.539 4.104 2.944 6.754.405 2.65.124 5.25-.792 7.324-.957 2.166-2.492 3.512-4.323 3.792a4.408 4.408 0 0 1-.68.05" mask="url(#d)"/>
        </g>
    </g>
</svg>
