<svg xmlns="http://www.w3.org/2000/svg" xmlns:xlink="http://www.w3.org/1999/xlink" width="51" height="50" viewBox="0 0 51 50">
    <defs>
        <path id="a" d="M0 .956h50.727v44.048H0z"/>
    </defs>
    <g fill="none" fill-rule="evenodd">
        <path fill="#CECED0" d="M15.871 49.266h-1.457c-3.813 0-6.905-3.102-6.905-6.93v-.804a2.464 2.464 0 0 1 2.46-2.47h1.098v3.273c0 1.855 1.499 3.36 3.347 3.36h3.917v1.102c0 1.363-1.1 2.47-2.46 2.47M40.63 10.204h-1.098V6.93a3.35 3.35 0 0 0-3.346-3.358h-3.919V2.469A2.464 2.464 0 0 1 34.727 0h1.458c3.814 0 6.905 3.103 6.905 6.931v.804c0 1.363-1.1 2.469-2.46 2.469"/>
        <g transform="translate(0 1.647)">
            <mask id="b" fill="#fff">
                <use xlink:href="#a"/>
            </mask>
            <path fill="#3C3C45" d="M49.54 39.264c0 2.508-2.035 4.55-4.534 4.55H19.432a5.74 5.74 0 0 0 2.235-4.55l-.002-2.444h27.876l-.001 2.444zm-33.58 4.55c-2.494-.006-4.522-2.046-4.522-4.55V6.697c0-1.86-.9-3.5-2.272-4.55h25.61c2.5 0 4.534 2.04 4.534 4.55v28.932H20.479l.002 3.635c0 2.504-2.027 4.544-4.52 4.55zM1.186 9.078V6.697c0-2.51 2.034-4.55 4.534-4.55 2.499 0 4.532 2.04 4.532 4.55v2.38H1.186zm39.31 26.551V6.697c0-3.166-2.566-5.74-5.72-5.74H5.72c-3.153 0-5.72 2.574-5.72 5.74v3.571h10.253v28.996c0 3.154 2.547 5.723 5.687 5.74h.01a.063.063 0 0 1 .022 0h29.037c3.152 0 5.718-2.575 5.718-5.74v-3.635h-10.23z" mask="url(#b)"/>
        </g>
        <path fill="#1B8734" d="M27.375 22.519h-12.38a.594.594 0 0 0 0 1.19h12.38a.594.594 0 0 0 0-1.19M35.678 18.948H14.996a.594.594 0 0 0-.593.595c0 .328.265.595.593.595h20.682a.594.594 0 0 0 0-1.19M14.996 16.567h20.681a.594.594 0 0 0 .593-.596.594.594 0 0 0-.593-.595H14.996a.594.594 0 0 0 0 1.19"/>
    </g>
</svg>
