<svg xmlns="http://www.w3.org/2000/svg" xmlns:xlink="http://www.w3.org/1999/xlink" width="53" height="50" viewBox="0 0 53 50">
    <defs>
        <path id="a" d="M0 0h21.891v16.28H0z"/>
    </defs>
    <g fill="none" fill-rule="evenodd">
        <g transform="translate(0 33.72)">
            <mask id="b" fill="#fff">
                <use xlink:href="#a"/>
            </mask>
            <path fill="#CECED0" d="M3.457 10.986c0 .997.8 1.805 1.788 1.805H21.89v2.326c0 .641-.516 1.162-1.152 1.162H3.457C1.547 16.28 0 14.717 0 12.791V1.163C0 .521.516 0 1.152 0h2.305v10.986z" mask="url(#b)"/>
        </g>
        <path fill="#1B8734" d="M18.435 2.326c4.454 0 8.065 3.644 8.065 8.14 0 4.494-3.61 8.139-8.065 8.139s-8.065-3.645-8.065-8.14c0-4.495 3.61-8.14 8.065-8.14m0 17.442c5.09 0 9.217-4.165 9.217-9.302s-4.127-9.302-9.217-9.302c-5.09 0-9.218 4.165-9.218 9.302s4.127 9.302 9.218 9.302"/>
        <path fill="#3C3C45" d="M33.413 43.023c0 1.927-1.547 3.489-3.456 3.489H6.913c-1.91 0-3.456-1.562-3.456-3.489v-8.14c0-6.421 5.158-11.627 11.521-11.627h6.913c6.364 0 11.522 5.206 11.522 11.628v8.14zm-11.522-20.93h-6.913c-7 0-12.674 5.727-12.674 12.79v8.14c0 2.569 2.064 4.651 4.609 4.651h23.044c2.545 0 4.608-2.082 4.608-4.65v-8.14c0-7.064-5.674-12.791-12.674-12.791zM39.174 1.163c3.817 0 6.913 3.124 6.913 6.977 0 3.852-3.096 6.976-6.913 6.976S32.26 11.992 32.26 8.14c0-3.853 3.096-6.977 6.913-6.977m0 15.116c4.454 0 8.065-3.644 8.065-8.14C47.24 3.645 43.63 0 39.174 0c-4.454 0-8.065 3.644-8.065 8.14 0 4.495 3.61 8.14 8.065 8.14M41.478 18.605H36.87c-1.986 0-3.852.507-5.482 1.397.421.207.831.436 1.228.684a10.242 10.242 0 0 1 4.254-.919h4.608c5.728 0 10.37 4.685 10.37 10.466v6.976c0 1.927-1.548 3.489-3.457 3.489h-9.217v1.162h9.217c2.545 0 4.609-2.082 4.609-4.65v-6.977c0-6.423-5.158-11.628-11.522-11.628"/>
    </g>
</svg>
