<svg xmlns="http://www.w3.org/2000/svg" xmlns:xlink="http://www.w3.org/1999/xlink" width="36" height="49" viewBox="0 0 36 49">
    <defs>
        <path id="a" d="M0 .004h18.905v18.598H0z"/>
    </defs>
    <g fill="none" fill-rule="evenodd">
        <path fill="#1B8734" d="M24.303 47.908h-9.818a.545.545 0 1 0 0 1.087h9.818a.545.545 0 1 0 0-1.087M25.394 44.647h-12a.545.545 0 1 0 0 1.087h12a.545.545 0 1 0 0-1.087"/>
        <g transform="translate(0 .082)">
            <mask id="b" fill="#fff">
                <use xlink:href="#a"/>
            </mask>
            <path fill="#CECED0" d="M18.633 3.43c.091 0 .18.013.272.015V2.18c0-1.314-1.16-2.313-2.47-2.161C7.922 1.008 1.147 7.67.02 16.112a2.19 2.19 0 0 0 2.166 2.49h1.22c0-8.379 6.818-15.171 15.228-15.171" mask="url(#b)"/>
        </g>
        <path fill="#3C3C45" d="M27.538 32.523l-.508.32v5.283c0 1.2-.977 2.174-2.182 2.174h-10.91a2.179 2.179 0 0 1-2.18-2.174v-5.284l-.51-.32c-4.402-2.77-7.127-7.589-7.127-12.874 0-8.405 6.838-15.218 15.272-15.218 8.435 0 15.273 6.813 15.273 15.218 0 5.285-2.725 10.104-7.128 12.875m-8.145-29.18c-9.037 0-16.363 7.3-16.363 16.305 0 5.807 3.048 10.905 7.636 13.794v4.684a3.267 3.267 0 0 0 3.273 3.26h10.909a3.267 3.267 0 0 0 3.273-3.26v-4.684c4.59-2.889 7.636-7.987 7.636-13.794 0-9.005-7.326-16.305-16.364-16.305"/>
        <path stroke="#3C3C45" stroke-linecap="round" stroke-width="1.087" d="M31.315 19.104c0-6.56-5.338-11.878-11.922-11.878"/>
    </g>
</svg>
