<svg xmlns="http://www.w3.org/2000/svg" xmlns:xlink="http://www.w3.org/1999/xlink" width="28" height="49" viewBox="0 0 28 49">
    <defs>
        <path id="a" d="M0 .777h14.888v14.559H0z"/>
        <path id="c" d="M.089 1.062h25.748v15.96H.089z"/>
        <path id="e" d="M.074 1.029h25.778v36.17H.074z"/>
    </defs>
    <g fill="none" fill-rule="evenodd">
        <g transform="translate(0 -.712)">
            <mask id="b" fill="#fff">
                <use xlink:href="#a"/>
            </mask>
            <path fill="#CECED0" d="M14.673 3.458c.072 0 .143.01.215.01V2.48c0-1.029-.913-1.81-1.945-1.691C6.238 1.562.903 6.777.016 13.384a1.719 1.719 0 0 0 1.705 1.952h.96c0-6.56 5.37-11.878 11.992-11.878" mask="url(#b)"/>
        </g>
        <path fill="#3C3C45" d="M15.11 43.936c-4.132 0-7.495-2.406-7.495-5.361 0-.972.364-1.923 1.052-2.75a.54.54 0 0 1 .757-.072.528.528 0 0 1 .072.749c-.528.633-.807 1.35-.807 2.073 0 2.37 2.88 4.297 6.422 4.297 3.541 0 6.422-1.928 6.422-4.297 0-.743-.295-1.478-.851-2.124a.53.53 0 0 1 .061-.75.541.541 0 0 1 .757.06c.723.842 1.107 1.814 1.107 2.814 0 2.955-3.363 5.36-7.496 5.36"/>
        <g transform="translate(2.148 31.202)">
            <mask id="d" fill="#fff">
                <use xlink:href="#c"/>
            </mask>
            <path fill="#3C3C45" d="M12.963 17.022C5.864 17.022.089 12.936.089 7.913c0-2.556 1.524-5.008 4.18-6.726a.543.543 0 0 1 .744.155.53.53 0 0 1-.156.736c-2.383 1.54-3.694 3.613-3.694 5.835 0 4.435 5.293 8.045 11.8 8.045 6.506 0 11.8-3.61 11.8-8.045 0-2.212-1.367-4.352-3.751-5.872a.526.526 0 0 1-.16-.734.54.54 0 0 1 .74-.16c2.698 1.72 4.245 4.186 4.245 6.766 0 5.023-5.776 9.109-12.874 9.109" mask="url(#d)"/>
        </g>
        <g transform="translate(2.148 1.415)">
            <mask id="f" fill="#fff">
                <use xlink:href="#e"/>
            </mask>
            <path fill="#3C3C45" d="M1.148 13.947c0-6.55 5.293-11.855 11.815-11.855 6.522 0 11.815 5.306 11.815 11.855 0 4.283-3.932 11.52-11.815 21.53C5.081 25.467 1.148 18.23 1.148 13.947M12.963 1.029C5.845 1.029.074 6.813.074 13.947c0 4.756 4.297 12.507 12.89 23.252 8.592-10.745 12.888-18.496 12.888-23.252 0-7.134-5.77-12.918-12.889-12.918" mask="url(#f)"/>
        </g>
        <path stroke="#1B8734" stroke-linecap="round" stroke-width="1.064" d="M7.103 15.616h4.189M18.93 15.616h4.19M15.111 7.684v4.15M15.111 19.399v4.149M21.03 15.616c0 3.24-2.652 5.868-5.924 5.868-3.272 0-5.924-2.627-5.924-5.868 0-3.24 2.652-5.868 5.924-5.868 3.272 0 5.924 2.628 5.924 5.868z"/>
    </g>
</svg>
