<svg xmlns="http://www.w3.org/2000/svg" xmlns:xlink="http://www.w3.org/1999/xlink" width="70" height="50" viewBox="0 0 70 50">
    <defs>
        <path id="a" d="M.947.943h14.149v15.724H.947z"/>
    </defs>
    <g fill="none" fill-rule="evenodd">
        <path fill="#1B8734" d="M29.41 22.292h-.693c-5.105 0-9.258-4.126-9.258-9.195v-.688c0-.354.288-.641.646-.641.356 0 .645.287.645.64v.69c0 4.362 3.574 7.912 7.967 7.912h.693c.356 0 .645.287.645.64 0 .355-.289.642-.645.642"/>
        <path fill="#1B8734" d="M29.41 22.292h-3.88c-9.127 0-16.553-7.374-16.553-16.439 0-.355.29-.64.646-.64.357 0 .645.285.645.64 0 8.357 6.847 15.157 15.263 15.157h3.879c.356 0 .645.287.645.64 0 .355-.289.642-.645.642"/>
        <path fill="#1B8734" d="M29.41 22.292h-8.936C9.185 22.292 0 13.17 0 1.959V.64C0 .287.288 0 .646 0c.356 0 .645.287.645.64V1.96c0 10.505 8.605 19.05 19.183 19.05h8.936c.356 0 .645.288.645.642 0 .354-.289.64-.645.64M41.034 22.292h-.694a.643.643 0 0 1-.645-.641c0-.354.29-.641.645-.641h.694c4.393 0 7.967-3.55 7.967-7.913v-.688c0-.354.29-.641.646-.641.356 0 .645.287.645.64v.69c0 5.068-4.153 9.194-9.258 9.194"/>
        <path fill="#1B8734" d="M44.22 22.292h-3.879a.643.643 0 0 1-.645-.641c0-.354.288-.641.645-.641h3.88c8.415 0 15.26-6.8 15.26-15.157 0-.355.29-.64.646-.64.358 0 .646.285.646.64 0 9.065-7.426 16.439-16.552 16.439"/>
        <path fill="#1B8734" d="M49.276 22.292h-8.935a.643.643 0 0 1-.646-.641c0-.354.29-.641.646-.641h8.935c10.578 0 19.183-8.546 19.183-19.051V.64c0-.354.29-.641.646-.641.357 0 .645.287.645.64V1.96c0 11.211-9.183 20.333-20.474 20.333"/>
        <g transform="translate(37.436 33.062)">
            <mask id="b" fill="#fff">
                <use xlink:href="#a"/>
            </mask>
            <path fill="#CECED0" d="M1.389 14.992L.947 13.9l7.627-3.045a3.185 3.185 0 0 0 1.975-2.5L11.615.943l1.174.167a2.671 2.671 0 0 1 2.28 3.02l-.687 4.77a7.049 7.049 0 0 1-4.364 5.525l-5.132 2.048a2.693 2.693 0 0 1-3.497-1.481" mask="url(#b)"/>
        </g>
        <path fill="#3C3C45" d="M34.887 49.072c-.73 0-1.459-.137-2.152-.414l-8.608-3.43a5.768 5.768 0 0 1-3.573-4.516l-2.266-15.756a.646.646 0 0 1 1.278-.18l2.267 15.755a4.477 4.477 0 0 0 2.774 3.508l8.608 3.43a4.51 4.51 0 0 0 3.347-.002l8.585-3.427a4.483 4.483 0 0 0 2.771-3.508l2.266-15.755a.652.652 0 0 1 .73-.545c.353.05.598.375.548.725l-2.266 15.755a5.768 5.768 0 0 1-3.568 4.518l-8.584 3.427a5.802 5.802 0 0 1-2.157.415M52.333 15.014a.642.642 0 0 1-.64-.73l.542-3.764a1.768 1.768 0 0 0-.418-1.414 1.792 1.792 0 0 0-1.35-.611H19.284c-.518 0-1.01.223-1.35.613-.339.387-.493.903-.419 1.412l.54 3.75a.642.642 0 0 1-.548.723.653.653 0 0 1-.73-.543l-.54-3.749a3.038 3.038 0 0 1 .722-2.434 3.088 3.088 0 0 1 2.325-1.054h31.183c.893 0 1.74.384 2.325 1.052.585.67.848 1.558.721 2.436l-.54 3.762a.645.645 0 0 1-.64.551"/>
        <path fill="#3C3C45" d="M25.362 18.404a.642.642 0 0 1-.642-.722c.198-1.523 1.515-2.67 3.061-2.67h14.19c1.545 0 2.86 1.145 3.06 2.665a.642.642 0 0 1-.557.718.643.643 0 0 1-.723-.552 1.794 1.794 0 0 0-1.78-1.549H27.78c-.9 0-1.665.667-1.779 1.55a.645.645 0 0 1-.64.56M38.091 39.905H31.66a3.089 3.089 0 0 1-3.02-2.447l-2.566-12.404a.643.643 0 0 1 .504-.758c.353-.07.69.153.761.5L29.903 37.2c.17.824.909 1.423 1.757 1.423h6.431c.848 0 1.587-.599 1.757-1.423l2.566-12.416a.649.649 0 0 1 .762-.5c.35.072.575.412.504.758l-2.567 12.416a3.093 3.093 0 0 1-3.022 2.447"/>
    </g>
</svg>
