<svg xmlns="http://www.w3.org/2000/svg" xmlns:xlink="http://www.w3.org/1999/xlink" width="62" height="49" viewBox="0 0 62 49">
    <defs>
        <path id="a" d="M0 .725h15.228v15.217H0z"/>
        <path id="c" d="M.499 0h15.227v15.217H.5z"/>
    </defs>
    <g fill="none" fill-rule="evenodd">
        <g transform="translate(0 -.638)">
            <mask id="b" fill="#fff">
                <use xlink:href="#a"/>
            </mask>
            <path fill="#CECED0" d="M14.14.725H3.258A3.257 3.257 0 0 0 0 3.98v10.875c0 .601.487 1.087 1.088 1.087h2.175V4.812c0-.456.37-.826.827-.826h11.138V1.812c0-.6-.487-1.087-1.088-1.087" mask="url(#b)"/>
        </g>
        <g transform="translate(45.684 33.058)">
            <mask id="d" fill="#fff">
                <use xlink:href="#c"/>
            </mask>
            <path fill="#CECED0" d="M1.586 15.217h10.882c1.8 0 3.259-1.458 3.259-3.255V1.087c0-.6-.488-1.087-1.088-1.087h-2.175v11.13c0 .457-.37.826-.827.826H.499v2.174c0 .601.487 1.087 1.087 1.087" mask="url(#d)"/>
        </g>
        <path fill="#3C3C45" d="M35.895 18.701h9.79a.544.544 0 0 1 0 1.087h-9.79a.544.544 0 0 1 0-1.087M35.895 15.44h15.228a.544.544 0 0 1 0 1.087H35.895a.544.544 0 0 1 0-1.087M35.895 12.18h15.228a.544.544 0 0 1 0 1.086H35.895a.544.544 0 0 1 0-1.087"/>
        <path stroke="#3C3C45" stroke-linecap="round" stroke-width="1.087" d="M17.526 2.968H5.16a2.287 2.287 0 0 0-2.288 2.287V43.1a2.287 2.287 0 0 0 2.288 2.286h12.366M43.827 45.387h12.367a2.287 2.287 0 0 0 2.288-2.287V5.254a2.287 2.287 0 0 0-2.288-2.286H43.827"/>
        <path fill="#1B8734" d="M18.491 10.322a5.752 5.752 0 0 0-5.754 5.75 5.752 5.752 0 0 0 5.754 5.75 5.752 5.752 0 0 0 5.754-5.75 5.752 5.752 0 0 0-5.754-5.75m0 1.087a4.67 4.67 0 0 1 4.667 4.664 4.67 4.67 0 0 1-4.667 4.663 4.67 4.67 0 0 1-4.666-4.663 4.67 4.67 0 0 1 4.666-4.664"/>
        <path fill="#3C3C45" d="M20.648 23.246h-4.313a7.902 7.902 0 0 0-7.905 7.9v4.912a2.996 2.996 0 0 0 2.998 2.996h14.126a2.997 2.997 0 0 0 3-2.996v-4.912c0-4.363-3.54-7.9-7.906-7.9m0 1.087c3.759 0 6.817 3.057 6.817 6.813v4.912a1.913 1.913 0 0 1-1.91 1.909H11.427a1.912 1.912 0 0 1-1.91-1.909v-4.912c0-3.756 3.058-6.813 6.817-6.813h4.313"/>
    </g>
</svg>
